# xmcd
#
# Track frame offsets: 
#        150
#        17611
#        31930
#        47162
#        60849
#        80419
#        95218
#        108549
#        130349
#
# Disc length: 1898 seconds
#
# Revision: 0
# Processed by: cddbd v1.5.2PL0 Copyright (c) Steve Scherf et al.
# Submitted via: ExactAudioCopy v1.1
#
DISCID=6e076809
DTITLE=Dynagroove Allstars - Brand New Key
DYEAR=2008
DGENRE=Blues
TTITLE0=Brand New Key
TTITLE1=Take it Back
TTITLE2=Feel it Again
TTITLE3=Tumblin' Down
TTITLE4=Whiskey
TTITLE5=Over You
TTITLE6=I Can't
TTITLE7=Man Hands
TTITLE8=Blues Avenue
EXTD=
EXTT0=
EXTT1=
EXTT2=
EXTT3=
EXTT4=
EXTT5=
EXTT6=
EXTT7=
EXTT8=
PLAYORDER=
